<svg class="graph-0-3-278" viewBox="-400 -400 800 800" xmlns="http://www.w3.org/2000/svg"><circle cx="0" cy="0" r="360" fill="none" stroke="currentColor" class="outline-0-3-287" stroke-width="4"></circle><circle cx="0" cy="0" r="360" fill="none" stroke="currentColor" class="progress-0-3-288" stroke-width="4" stroke-dasharray="2261.946710584651" stroke-dashoffset="2261.946710584651" data-svg-origin="0 0" transform="matrix(0,-1,1,0,0,0)" style="translate: none; rotate: none; scale: none; transform-origin: 0px 0px; stroke-dashoffset: 2262px;"></circle>

<circle cx="0" cy="-360" r="15" fill="none" stroke="currentColor" class="point-0-3-289 selected" data-svg-origin="0 -360" transform="matrix(2.5,0,0,2.5,0,540)" style="translate: none; rotate: none; scale: none; transform-origin: 0px 0px; fill: rgb(207, 207, 176);"></circle><text x="-8" y="-350" class="text-0-3-290" style="color: rgb(58, 58, 31); opacity: 1;">1</text>


<circle cx="254.5584412271571" cy="-254.55844122715712" r="15" fill="none" stroke="currentColor" class="point-0-3-289" data-svg-origin="254.55844116210938 -254.55844116210938" transform="matrix(1,0,0,1,0,0)" style="translate: none; rotate: none; scale: none; transform-origin: 0px 0px; fill: rgb(58, 58, 31);"></circle><text x="246.5584412271571" y="-244.55844122715712" class="text-0-3-290" style="color: rgb(58, 58, 31); opacity: 0;">2</text>

<circle cx="360" cy="-2.2043642384652358e-14" r="15" fill="none" stroke="currentColor" class="point-0-3-289" data-svg-origin="360 0" transform="matrix(1,0,0,1,0,0)" style="translate: none; rotate: none; scale: none; transform-origin: 0px 0px; fill: rgb(58, 58, 31);"></circle><text x="352" y="9.999999999999979" class="text-0-3-290" style="color: rgb(58, 58, 31); opacity: 0;">3</text>

<circle cx="254.55844122715712" cy="254.5584412271571" r="15" fill="none" stroke="currentColor" class="point-0-3-289" data-svg-origin="254.55844116210938 254.55844116210938" transform="matrix(1,0,0,1,0,0)" style="translate: none; rotate: none; scale: none; transform-origin: 0px 0px; fill: rgb(58, 58, 31);"></circle><text x="246.55844122715712" y="264.5584412271571" class="text-0-3-290" style="color: rgb(58, 58, 31); opacity: 0;">4</text>

<circle cx="4.4087284769304716e-14" cy="360" r="15" fill="none" stroke="currentColor" class="point-0-3-289" data-svg-origin="0 360" transform="matrix(1,0,0,1,0,0)" style="translate: none; rotate: none; scale: none; transform-origin: 0px 0px; fill: rgb(58, 58, 31);"></circle><text x="-7.999999999999956" y="370" class="text-0-3-290" style="color: rgb(58, 58, 31); opacity: 0;">5</text>

<circle cx="-254.5584412271571" cy="254.55844122715718" r="15" fill="none" stroke="currentColor" class="point-0-3-289" data-svg-origin="-254.55844116210938 254.55844116210938" transform="matrix(1,0,0,1,0,0)" style="translate: none; rotate: none; scale: none; transform-origin: 0px 0px; fill: rgb(58, 58, 31);"></circle><text x="-262.5584412271571" y="264.5584412271572" class="text-0-3-290" style="color: rgb(58, 58, 31); opacity: 0;">6</text>

<circle cx="-360" cy="6.613092715395707e-14" r="15" fill="none" stroke="currentColor" class="point-0-3-289" data-svg-origin="-360 0" transform="matrix(1,0,0,1,0,0)" style="translate: none; rotate: none; scale: none; transform-origin: 0px 0px; fill: rgb(58, 58, 31);"></circle><text x="-368" y="10.000000000000066" class="text-0-3-290" style="color: rgb(58, 58, 31); opacity: 0;">7</text>

<circle cx="-254.55844122715718" cy="-254.55844122715703" r="15" fill="none" stroke="currentColor" class="point-0-3-289" data-svg-origin="-254.55844116210938 -254.55844116210938" transform="matrix(1,0,0,1,0,0)" style="translate: none; rotate: none; scale: none; transform-origin: 0px 0px; fill: rgb(58, 58, 31);"></circle><text x="-262.5584412271572" y="-244.55844122715703" class="text-0-3-290" style="color: rgb(58, 58, 31); opacity: 0;">8</text></svg>